<svg xmlns="http://www.w3.org/2000/svg" width="130" height="37" fill="none" xmlns:v="https://vecta.io/nano"><g clip-path="url(#A)"><path d="M49.556 0c2.209 0 4.256.406 6.141 1.219 1.901.796 3.558 1.982 4.972 3.559 1.413 1.56 2.51 3.485 3.29 5.776.796 2.291 1.194 4.924 1.194 7.898s-.398 5.615-1.194 7.922c-.796 2.291-1.909 4.233-3.339 5.825-1.413 1.576-3.062 2.771-4.946 3.583S51.749 37 49.556 37c-2.177 0-4.208-.406-6.093-1.219s-3.541-2.007-4.971-3.583c-1.413-1.592-2.518-3.534-3.314-5.825-.78-2.307-1.17-4.948-1.17-7.922s.39-5.606 1.17-7.898c.796-2.291 1.901-4.216 3.314-5.776 1.413-1.576 3.062-2.762 4.946-3.559C45.339.406 47.379 0 49.556 0zm67.065 0c2.437 0 4.5.406 6.19 1.219 1.705.796 3.087 1.828 4.143 3.096 1.072 1.267 1.843 2.6 2.315 3.997.487 1.397.731 2.697.731 3.899v.293h-6.238v-.293c0-.845-.147-1.673-.44-2.485a6.63 6.63 0 0 0-1.34-2.219c-.601-.666-1.348-1.194-2.242-1.584s-1.933-.585-3.119-.585c-1.608 0-3.12.447-4.533 1.341-1.397.894-2.534 2.316-3.411 4.266-.861 1.934-1.292 4.477-1.292 7.629 0 2.388.244 4.419.731 6.093s1.145 3.031 1.974 4.071c.845 1.04 1.804 1.804 2.876 2.291 1.088.471 2.233.706 3.435.706 1.625 0 2.974-.276 4.046-.828 1.089-.552 1.933-1.243 2.534-2.072.618-.829 1.008-1.641 1.17-2.437v-2.803h-7.676v-4.826h13.427v17.695h-3.704l-.536-3.997c-.114.292-.381.691-.804 1.194-.406.504-.991 1.016-1.754 1.536-.764.504-1.739.925-2.925 1.267-1.17.357-2.575.537-4.216.537-2.794 0-5.337-.716-7.628-2.145-2.274-1.43-4.085-3.518-5.434-6.264s-2.023-6.085-2.023-10.018c0-3.948.699-7.304 2.097-10.066s3.281-4.867 5.653-6.313C111.016.731 113.681 0 116.621 0zM22.249 31.455V.524h6.264v35.951H18.302L6.238 5.808v30.668H0V.524h10.065l12.184 30.931zM84.489.523c3.623 0 6.344.829 8.164 2.486s2.73 4.095 2.73 7.313c0 1.885-.357 3.486-1.072 4.802s-1.584 2.332-2.607 3.047-1.999 1.121-2.925 1.219a7.42 7.42 0 0 1 2.73.73c.877.422 1.592 1.089 2.144 1.999.569.894.854 2.105.854 3.632v7.288c0 .764.064 1.47.194 2.12.13.634.292 1.073.487 1.316H88.73c-.162-.292-.308-.74-.439-1.341-.114-.617-.17-1.316-.17-2.096v-6.532c0-1.479-.415-2.6-1.243-3.364s-2.08-1.146-3.753-1.146h-6.214v14.479h-6.264V.523h13.842zm-34.934 4.79c-1.641 0-3.152.447-4.533 1.341-1.365.894-2.461 2.308-3.289 4.241-.812 1.917-1.219 4.436-1.219 7.556s.407 5.655 1.219 7.605c.828 1.95 1.924 3.38 3.289 4.29a8.07 8.07 0 0 0 4.533 1.365c1.689 0 3.216-.455 4.581-1.365 1.365-.926 2.445-2.365 3.241-4.315.812-1.95 1.219-4.476 1.219-7.58 0-3.12-.407-5.638-1.219-7.556-.812-1.934-1.901-3.347-3.266-4.241s-2.883-1.341-4.557-1.341zm27.355 11.565h6.263c1.056 0 2.006-.244 2.851-.731.845-.504 1.512-1.202 1.999-2.096.504-.894.755-1.942.755-3.145 0-1.755-.504-3.071-1.511-3.948s-2.437-1.316-4.289-1.316h-6.067v11.236z" fill="#2d2d2d"/></g><defs><clipPath id="A"><path fill="#fff" d="M0 0h130v37H0z"/></clipPath></defs></svg>