<svg xmlns="http://www.w3.org/2000/svg" width="70" height="20" fill="none"><g clip-path="url(#a)"><path fill="#2D2D2D" d="M26.684 0c1.19 0 2.291.22 3.306.66a7.402 7.402 0 0 1 2.677 1.922c.761.843 1.352 1.885 1.771 3.123.43 1.239.644 2.661.644 4.269 0 1.607-.215 3.035-.644 4.282-.428 1.238-1.027 2.288-1.796 3.148a7.576 7.576 0 0 1-2.665 1.937c-1.014.439-2.112.659-3.293.659a8.168 8.168 0 0 1-3.28-.66 7.7 7.7 0 0 1-2.677-1.936c-.762-.86-1.357-1.91-1.786-3.148-.42-1.247-.63-2.675-.63-4.282 0-1.608.21-3.03.63-4.269.43-1.238 1.024-2.28 1.786-3.123A7.431 7.431 0 0 1 23.39.659 8.263 8.263 0 0 1 26.684 0Zm36.112 0c1.312 0 2.423.22 3.333.66.918.43 1.662.987 2.23 1.672.578.685.994 1.406 1.247 2.161.263.755.394 1.458.394 2.108v.158h-3.36V6.6a3.94 3.94 0 0 0-.236-1.344 3.6 3.6 0 0 0-.721-1.2 3.47 3.47 0 0 0-1.207-.856c-.481-.21-1.042-.315-1.68-.315a4.47 4.47 0 0 0-2.44.724c-.753.483-1.365 1.252-1.837 2.306-.464 1.045-.697 2.42-.697 4.123 0 1.291.132 2.39.395 3.294.262.905.616 1.638 1.062 2.2.455.562.972.976 1.55 1.24a4.594 4.594 0 0 0 1.849.381c.875 0 1.601-.15 2.178-.448.586-.299 1.041-.672 1.365-1.12.332-.448.542-.887.63-1.317v-1.515h-4.134v-2.61h7.23v9.566h-1.994l-.289-2.16c-.061.158-.205.373-.433.645-.218.273-.534.55-.945.83-.41.273-.936.5-1.574.685-.63.193-1.387.29-2.27.29-1.505 0-2.875-.386-4.108-1.16-1.225-.772-2.2-1.902-2.926-3.386-.726-1.484-1.089-3.29-1.089-5.415 0-2.134.376-3.947 1.128-5.44.753-1.494 1.768-2.632 3.045-3.413C59.778.396 61.212 0 62.796 0ZM11.98 17.003V.283h3.372v19.434H9.854L3.36 3.14v16.577H0V.283h5.419l6.561 16.72ZM45.495.283c1.95 0 3.417.448 4.397 1.344.98.896 1.47 2.214 1.47 3.953 0 1.019-.194 1.884-.579 2.596-.385.71-.852 1.26-1.403 1.646-.551.387-1.077.607-1.575.66.507.035.997.166 1.47.394.472.228.857.59 1.155 1.081.306.483.459 1.138.459 1.963v3.94c0 .412.034.795.104 1.146.07.342.158.58.263.71h-3.478c-.087-.157-.165-.4-.235-.724a6.312 6.312 0 0 1-.093-1.133v-3.53c0-.8-.223-1.406-.669-1.82-.446-.412-1.12-.618-2.02-.618h-3.347v7.826h-3.372V.283h7.453Zm-18.81 2.59a4.39 4.39 0 0 0-2.44.724c-.736.483-1.326 1.247-1.772 2.293-.438 1.036-.657 2.397-.657 4.084 0 1.686.22 3.056.657 4.11.446 1.054 1.036 1.827 1.771 2.32a4.333 4.333 0 0 0 2.44.737c.91 0 1.733-.246 2.467-.738.735-.5 1.317-1.278 1.745-2.332.438-1.054.657-2.42.657-4.097 0-1.687-.22-3.048-.657-4.084-.437-1.046-1.023-1.81-1.757-2.293a4.372 4.372 0 0 0-2.454-.725Zm14.73 6.251h3.372a3.01 3.01 0 0 0 1.535-.395c.455-.273.814-.65 1.077-1.133.27-.483.406-1.05.406-1.7 0-.948-.272-1.66-.814-2.134-.542-.475-1.312-.712-2.31-.712h-3.267v6.074Z"/></g><defs><clipPath id="a"><path fill="#fff" d="M0 0h70v20H0z"/></clipPath></defs></svg>